<?xml version="1.0" encoding="UTF-8" standalone="no"?>
<svg
   viewBox="0 0 24 24"
   width="24" height="24"
   fill="none"
   version="1.1"
   xmlns="http://www.w3.org/2000/svg"
   xmlns:svg="http://www.w3.org/2000/svg">
  <path
     d="m 21.7071,3.7071101 -5.292901,5.292889 h 3.5858 c 0.5523,0 1.000001,0.447721 1.000001,1 0,0.5523009 -0.447701,0.9999999 -1.000001,0.9999999 h -5.9993 -0.0037 c -0.254,-8e-4 -0.5078,-0.0977 -0.702,-0.2908 l -0.0042,-0.0042 c -0.0948,-0.0954 -0.1665,-0.205099 -0.2149,-0.3222 -0.0486,-0.117099 -0.0755,-0.2453 -0.0759,-0.379799 V 10 4.0000011 c 0,-0.55228 0.4477,-1 1,-1 0.5523,0 1,0.44772 1,1 v 3.58579 l 5.2929,-5.2929 c 0.3905,-0.39052 1.023701,-0.39052 1.414201,0 0.3905,0.39053 0.3905,1.023689 0,1.414219 z"
     fill="currentColor"
    />
  <path
     d="m 9.0000001,19.999999 c 0,0.5523 0.44772,1 0.9999999,1 0.5523,0 1,-0.4477 1,-1 v -5.9993 c 0,-10e-4 0,-0.0027 0,-0.0037 -8e-4,-0.273899 -0.1117,-0.5218 -0.2908,-0.702 -0.0014,-0.0014 -0.0028,-0.0028 -0.0042,-0.0042 -0.0954,-0.0948 -0.205101,-0.166501 -0.322201,-0.2149 -0.1171,-0.0486 -0.2453,-0.0755 -0.3798,-0.0759 -0.001,0 -0.002,0 -0.003,0 h -5.999999 c -0.55228,0 -1,0.4477 -1,1 0,0.5523 0.44772,1 1,1 h 3.585789 l -5.2929,5.2929 c -0.39052,0.3905 -0.39052,1.0237 0,1.4142 0.390531,0.3905 1.023691,0.3905 1.414221,0 l 5.292889,-5.2929 z"
     fill="currentColor"
     />
</svg>
