<?xml version="1.0" encoding="UTF-8" standalone="no"?>
<svg width="24" height="24" viewBox="0 0 24 24" fill="none" xmlns="http://www.w3.org/2000/svg">
  <path
     d="m 13.292874,9.2928902 5.292901,-5.292889 h -3.5858 c -0.5523,0 -1.000001,-0.447721 -1.000001,-1 0,-0.552301 0.447701,-1 1.000001,-1 h 5.9993 0.0037 c 0.254,8e-4 0.5078,0.0977 0.702,0.2908 l 0.0042,0.0042 c 0.0948,0.0954 0.1665,0.205099 0.2149,0.3222 0.0486,0.117099 0.0755,0.2453 0.0759,0.379799 v 0.003 5.999999 c 0,0.55228 -0.4477,1 -1,1 -0.5523,0 -1,-0.44772 -1,-1 v -3.58579 l -5.2929,5.2928997 c -0.3905,0.39052 -1.023701,0.39052 -1.414201,0 -0.3905,-0.39053 -0.3905,-1.0236887 0,-1.4142188 z"
     fill="currentColor"
      />
  <path
     d="m 3.9999993,14.999974 c 0,-0.5523 -0.44772,-1 -1,-1 -0.5523,0 -1,0.4477 -1,1 v 5.9993 c 0,0.001 0,0.0027 0,0.0037 8e-4,0.273899 0.1117,0.5218 0.2908,0.702 0.0014,0.0014 0.0028,0.0028 0.0042,0.0042 0.0954,0.0948 0.205101,0.166501 0.322201,0.2149 0.1171,0.0486 0.2453,0.0755 0.3798,0.0759 0.001,0 0.002,0 0.003,0 h 5.999999 c 0.55228,0 1,-0.4477 1,-1 0,-0.5523 -0.44772,-1 -1,-1 H 5.4142102 l 5.2928998,-5.2929 c 0.39052,-0.3905 0.39052,-1.0237 0,-1.4142 -0.390531,-0.3905 -1.0236907,-0.3905 -1.4142207,0 l -5.2928891,5.2929 z"
     fill="currentColor"
      />
</svg>
