<svg
   width="32px"
   height="30px"
   viewBox="0 0 24 24"
   fill="none"
   version="1.1"
   xmlns="http://www.w3.org/2000/svg"
   xmlns:svg="http://www.w3.org/2000/svg">
  <path
     opacity="0.5"
     fill-rule="evenodd"
     clip-rule="evenodd"
     d="M3.46447 3.46447C2 4.92893 2 7.28595 2 12C2 16.714 2 19.0711 3.46447 20.5355C4.92893 22 7.28595 22 12 22C16.714 22 19.0711 22 20.5355 20.5355C22 19.0711 22 16.714 22 12C22 7.28595 22 4.92893 20.5355 3.46447C19.0711 2 16.714 2 12 2C7.28595 2 4.92893 2 3.46447 3.46447Z"
     fill="#ccc" />
  <path
     d="m 16.133034,13.1766 c 0.58406,-0.62 1.55896,-0.6525 2.18305,-0.0728 l 0.81051,0.7528 c 0.3035,0.2819 0.77805,0.2643 1.05994,-0.0392 0.28189,-0.3035 0.26437,-0.778 -0.03913,-1.0599 l -0.8105,-0.7528 c -1.22806,-1.1406 -3.14641,-1.0766 -4.29569,0.1434 l -2.64751,2.8103 c -0.2769,0.2939 -0.7302,0.3335 -1.0539,0.092 -1.1999,-0.8951 -2.8706999,-0.7934 -3.9530999,0.2407 l -2.2678,2.1666 c -0.2995,0.2861 -0.3103,0.7609 -0.0242,1.0604 0.2861,0.2995 0.7609,0.3103 1.0604,0.0242 l 2.2678,-2.1666 c 0.5531,-0.5284 1.4068,-0.5804 2.0199999,-0.123 0.9345,0.6972 2.2432,0.5829 3.0426,-0.2658 z"
     fill="#ccc" />
  <path
     d="m 6.0197054,7.9532689 c 0,1.10457 0.8954,2 2,2 1.1046,0 1.9999996,-0.89543 1.9999996,-2 0,-1.10457 -0.8953996,-2 -1.9999996,-2 -1.1046,0 -2,0.89543 -2,2 z"
     fill="#ccc" />
</svg>
