<svg width="100" height="25" viewBox="0 0 223 58" fill="none" xmlns="http://www.w3.org/2000/svg">
<circle cx="17.5" cy="29" r="16" stroke="currentColor" stroke-width="3"/>
<line x1="39" y1="19.5" x2="69" y2="19.5" stroke="currentColor" stroke-width="3"/>
<circle cx="63" cy="31" r="4.5" stroke="currentColor" stroke-width="3"/>
<path d="M84.0682 44V22.1818H87.3068V25.4773H87.5341C87.9318 24.3977 88.6515 23.5218 89.6932 22.8494C90.7348 22.1771 91.9091 21.8409 93.2159 21.8409C93.4621 21.8409 93.7699 21.8456 94.1392 21.8551C94.5085 21.8646 94.7879 21.8788 94.9773 21.8977V25.3068C94.8636 25.2784 94.6032 25.2358 94.196 25.179C93.7983 25.1127 93.3769 25.0795 92.9318 25.0795C91.8712 25.0795 90.9242 25.3021 90.0909 25.7472C89.267 26.1828 88.6136 26.7888 88.1307 27.5653C87.6572 28.3324 87.4205 29.2083 87.4205 30.1932V44H84.0682ZM107.094 52.6364C105.474 52.6364 104.082 52.428 102.918 52.0114C101.753 51.6042 100.782 51.0644 100.006 50.392C99.2386 49.7292 98.6278 49.0189 98.1733 48.2614L100.844 46.3864C101.147 46.7841 101.53 47.2386 101.994 47.75C102.458 48.2708 103.093 48.7206 103.898 49.0994C104.712 49.4877 105.777 49.6818 107.094 49.6818C108.855 49.6818 110.309 49.2557 111.455 48.4034C112.6 47.5511 113.173 46.2159 113.173 44.3977V39.9659H112.889C112.643 40.3636 112.293 40.8561 111.838 41.4432C111.393 42.0208 110.749 42.5369 109.906 42.9915C109.073 43.4366 107.946 43.6591 106.526 43.6591C104.764 43.6591 103.183 43.2424 101.781 42.4091C100.389 41.5758 99.286 40.3636 98.4716 38.7727C97.6667 37.1818 97.2642 35.25 97.2642 32.9773C97.2642 30.7424 97.6572 28.7964 98.4432 27.1392C99.2292 25.4725 100.323 24.1847 101.724 23.2756C103.126 22.357 104.745 21.8977 106.582 21.8977C108.003 21.8977 109.13 22.1345 109.963 22.608C110.806 23.072 111.45 23.6023 111.895 24.1989C112.349 24.786 112.7 25.2689 112.946 25.6477H113.287V22.1818H116.526V44.625C116.526 46.5 116.099 48.0246 115.247 49.1989C114.404 50.3826 113.268 51.2491 111.838 51.7983C110.418 52.357 108.836 52.6364 107.094 52.6364ZM106.98 40.6477C108.325 40.6477 109.461 40.34 110.389 39.7244C111.317 39.1089 112.023 38.2235 112.506 37.0682C112.989 35.9129 113.23 34.5303 113.23 32.9205C113.23 31.3485 112.993 29.9612 112.52 28.7585C112.046 27.5559 111.346 26.6136 110.418 25.9318C109.49 25.25 108.344 24.9091 106.98 24.9091C105.56 24.9091 104.376 25.2689 103.429 25.9886C102.491 26.7083 101.786 27.6742 101.312 28.8864C100.848 30.0985 100.616 31.4432 100.616 32.9205C100.616 34.4356 100.853 35.7756 101.327 36.9403C101.81 38.0956 102.52 39.0047 103.457 39.6676C104.404 40.321 105.579 40.6477 106.98 40.6477ZM129.082 44.5114C127.7 44.5114 126.445 44.2509 125.318 43.7301C124.191 43.1998 123.296 42.4375 122.634 41.4432C121.971 40.4394 121.639 39.2273 121.639 37.8068C121.639 36.5568 121.885 35.5436 122.378 34.767C122.87 33.9811 123.528 33.3655 124.352 32.9205C125.176 32.4754 126.085 32.1439 127.08 31.9261C128.083 31.6989 129.092 31.5189 130.105 31.3864C131.431 31.2159 132.506 31.0881 133.33 31.0028C134.163 30.9081 134.769 30.7519 135.148 30.5341C135.536 30.3163 135.73 29.9375 135.73 29.3977V29.2841C135.73 27.8826 135.347 26.7936 134.58 26.017C133.822 25.2405 132.671 24.8523 131.128 24.8523C129.527 24.8523 128.273 25.2027 127.364 25.9034C126.455 26.6042 125.815 27.3523 125.446 28.1477L122.264 27.0114C122.832 25.6856 123.59 24.6534 124.537 23.9148C125.493 23.1667 126.535 22.6458 127.662 22.3523C128.798 22.0492 129.916 21.8977 131.014 21.8977C131.715 21.8977 132.52 21.983 133.429 22.1534C134.348 22.3144 135.233 22.6506 136.085 23.1619C136.947 23.6733 137.662 24.4451 138.23 25.4773C138.798 26.5095 139.082 27.892 139.082 29.625V44H135.73V41.0455H135.56C135.332 41.5189 134.954 42.0256 134.423 42.5653C133.893 43.1051 133.188 43.5644 132.307 43.9432C131.426 44.322 130.351 44.5114 129.082 44.5114ZM129.594 41.5C130.92 41.5 132.037 41.2396 132.946 40.7188C133.865 40.1979 134.556 39.5256 135.02 38.7017C135.493 37.8778 135.73 37.0114 135.73 36.1023V33.0341C135.588 33.2045 135.276 33.3608 134.793 33.5028C134.319 33.6354 133.77 33.7538 133.145 33.858C132.529 33.9527 131.928 34.0379 131.341 34.1136C130.763 34.1799 130.295 34.2367 129.935 34.2841C129.063 34.3977 128.249 34.5824 127.491 34.8381C126.743 35.0843 126.137 35.4583 125.673 35.9602C125.219 36.4527 124.991 37.125 124.991 37.9773C124.991 39.142 125.422 40.0227 126.284 40.6193C127.155 41.2064 128.259 41.5 129.594 41.5ZM148.553 14.9091V44H145.201V14.9091H148.553ZM158.045 14.9091V44H154.693V14.9091H158.045ZM173.333 44.4545C171.231 44.4545 169.417 43.9905 167.893 43.0625C166.378 42.125 165.208 40.8182 164.384 39.142C163.57 37.4564 163.163 35.4962 163.163 33.2614C163.163 31.0265 163.57 29.0568 164.384 27.3523C165.208 25.6383 166.354 24.303 167.822 23.3466C169.299 22.3807 171.022 21.8977 172.992 21.8977C174.129 21.8977 175.251 22.0871 176.359 22.4659C177.467 22.8447 178.475 23.4602 179.384 24.3125C180.293 25.1553 181.018 26.2727 181.558 27.6648C182.097 29.0568 182.367 30.7708 182.367 32.8068V34.2273H165.549V31.3295H178.958C178.958 30.0985 178.712 29 178.219 28.0341C177.737 27.0682 177.045 26.3059 176.146 25.7472C175.255 25.1884 174.204 24.9091 172.992 24.9091C171.657 24.9091 170.502 25.2405 169.526 25.9034C168.56 26.5568 167.817 27.4091 167.296 28.4602C166.775 29.5114 166.515 30.6383 166.515 31.8409V33.7727C166.515 35.4205 166.799 36.8172 167.367 37.9631C167.945 39.0994 168.745 39.9659 169.768 40.5625C170.79 41.1496 171.979 41.4432 173.333 41.4432C174.214 41.4432 175.009 41.3201 175.719 41.0739C176.439 40.8182 177.059 40.4394 177.58 39.9375C178.101 39.4261 178.504 38.7917 178.788 38.0341L182.026 38.9432C181.685 40.0417 181.112 41.0076 180.308 41.8409C179.503 42.6648 178.508 43.3087 177.325 43.7727C176.141 44.2273 174.81 44.4545 173.333 44.4545ZM187.467 44V22.1818H190.705V25.4773H190.933C191.33 24.3977 192.05 23.5218 193.092 22.8494C194.133 22.1771 195.308 21.8409 196.614 21.8409C196.861 21.8409 197.168 21.8456 197.538 21.8551C197.907 21.8646 198.186 21.8788 198.376 21.8977V25.3068C198.262 25.2784 198.002 25.2358 197.594 25.179C197.197 25.1127 196.775 25.0795 196.33 25.0795C195.27 25.0795 194.323 25.3021 193.489 25.7472C192.665 26.1828 192.012 26.7888 191.529 27.5653C191.056 28.3324 190.819 29.2083 190.819 30.1932V44H187.467ZM205.173 52.1818C204.604 52.1818 204.098 52.1345 203.653 52.0398C203.208 51.9545 202.9 51.8693 202.729 51.7841L203.582 48.8295C204.396 49.0379 205.116 49.1136 205.741 49.0568C206.366 49 206.92 48.7206 207.403 48.2188C207.895 47.7263 208.345 46.9261 208.752 45.8182L209.377 44.1136L201.309 22.1818H204.945L210.968 39.5682H211.195L217.218 22.1818H220.854L211.593 47.1818C211.176 48.3087 210.66 49.2415 210.045 49.9801C209.429 50.7282 208.714 51.2822 207.9 51.642C207.095 52.0019 206.186 52.1818 205.173 52.1818Z" fill="currentColor"/>
</svg>
